<svg xmlns="http://www.w3.org/2000/svg" viewBox="0 0 512 512" width="512" height="512">
  <!-- Background circle -->
  <circle cx="256" cy="256" r="240" fill="#1976D2" opacity="0.1"/>

  <!-- Main pump body -->
  <rect x="180" y="200" width="152" height="180" rx="10" fill="#1976D2"/>

  <!-- Motor section (top) -->
  <rect x="200" y="160" width="112" height="50" rx="8" fill="#1565C0"/>
  <circle cx="256" cy="185" r="15" fill="#0D47A1"/>

  <!-- Inlet pipe (left) -->
  <rect x="80" y="265" width="100" height="30" rx="5" fill="#42A5F5"/>
  <circle cx="80" cy="280" r="20" fill="#42A5F5"/>

  <!-- Outlet pipe (right) -->
  <rect x="332" y="240" width="100" height="40" rx="5" fill="#1E88E5"/>
  <circle cx="432" cy="260" r="25" fill="#1E88E5"/>

  <!-- Water droplets -->
  <path d="M390 270 L395 285 L385 285 Z" fill="#64B5F6"/>
  <path d="M405 275 L410 290 L400 290 Z" fill="#64B5F6"/>
  <path d="M420 265 L425 280 L415 280 Z" fill="#64B5F6"/>

  <!-- Control panel details -->
  <rect x="210" y="220" width="30" height="8" rx="2" fill="#90CAF9"/>
  <rect x="210" y="235" width="50" height="8" rx="2" fill="#90CAF9"/>
  <rect x="210" y="250" width="40" height="8" rx="2" fill="#90CAF9"/>

  <!-- Status indicator lights -->
  <circle cx="290" cy="224" r="6" fill="#4CAF50"/>
  <circle cx="310" cy="224" r="6" fill="#90CAF9"/>

  <!-- Base/mounting -->
  <rect x="170" y="380" width="172" height="15" rx="3" fill="#0D47A1"/>
  <rect x="185" y="395" width="142" height="8" rx="2" fill="#1565C0"/>

  <!-- Pump impeller suggestion (internal) -->
  <circle cx="256" cy="290" r="35" fill="#0D47A1" opacity="0.3"/>
  <path d="M256 255 L256 325 M221 290 L291 290" stroke="#0D47A1" stroke-width="6" stroke-linecap="round" opacity="0.3"/>
</svg>
